<svg xmlns="http://www.w3.org/2000/svg" xmlns:xlink="http://www.w3.org/1999/xlink" width="220.663" height="403.053" viewBox="0 0 220.663 403.053">
  <defs>
    <clipPath id="clip-path">
      <path id="Path_47" data-name="Path 47" d="M275.07,110.47a7.69,7.69,0,0,1,5.66-5.28,9.423,9.423,0,0,1,8.34,1.97c-1.65.31-2.33,2.48-7,4.1S275.07,110.47,275.07,110.47Z"/>
    </clipPath>
    <clipPath id="clip-path-2">
      <path id="Path_54" data-name="Path 54" d="M259.01,110.32a7.69,7.69,0,0,0-5.66-5.28,9.423,9.423,0,0,0-8.34,1.97c1.65.31,2.33,2.48,7,4.1S259.01,110.32,259.01,110.32Z"/>
    </clipPath>
  </defs>
  <g id="doctor" transform="translate(-139.777 -49.733)">
    <g id="BACKGROUND">
      <g id="Group_94" data-name="Group 94">
        <g id="Group_86" data-name="Group 86">
          <g id="Group_74" data-name="Group 74">
            <path id="Path_22" data-name="Path 22" d="M303.46,115.57s1.03,10.93,12.89,18.17c18.71,11.42,28.88,35.5.04,59,8.76-9.73,15.75-20.51,14-32.5s-5.87-16.91-13.92-22.88S301.48,126.9,303.46,115.57Z" fill="#0a0751"/>
            <g id="Group_55" data-name="Group 55">
              <path id="Path_23" data-name="Path 23" d="M189.6,189.95c-9.22-5.6-15.76-19.04-6.43-39.98a72.852,72.852,0,0,1,26.77-31.28l.25.43a72.283,72.283,0,0,0-26.56,31.05c-11.57,25.98,1.85,36.69,6.23,39.35Z" fill="#13136b"/>
            </g>
            <g id="Group_56" data-name="Group 56">
              <path id="Path_24" data-name="Path 24" d="M318.15,182.82l-.19-.46c9.17-3.77,15.34-9.31,17.84-16.03a21.62,21.62,0,0,0-1.29-17.48c-2.96-5.83-8.62-10.76-14.62-15.99a114.628,114.628,0,0,1-13.02-12.63c-9.28-11.1-9.89-27.49-9.89-27.65l.5-.02c0,.16.61,16.38,9.77,27.35a115.406,115.406,0,0,0,12.96,12.58c6.03,5.26,11.73,10.22,14.74,16.14a22.147,22.147,0,0,1,1.31,17.89C333.72,173.36,327.46,179,318.15,182.82Z" fill="#13136b"/>
            </g>
            <path id="Path_25" data-name="Path 25" d="M314.12,136.89s14.11,7.07,12.53,34.01c-1.37,23.38-37.81,36.64-66.99,38.2s-49.37-7.74-61.04-13.96-6.21-30.16,1.76-51.17,30.55-55.06,30.55-55.06,60.01-5.84,62.08-4.28C295.1,86.18,298.51,129.24,314.12,136.89Z" fill="#06062d"/>
            <path id="Path_26" data-name="Path 26" d="M314.15,136.44c-16.37-13.08-19.05-50.27-21.12-51.82-.54-.4-4.99-.31-11.29.05,2.21,9.84,6.33,33.53,18.89,39.69,0,0,14.96,15.37,13.38,42.31-1.37,23.38-37.81,36.64-66.99,38.2a112.259,112.259,0,0,1-35.24-3.55,110.644,110.644,0,0,0,47.9,7.78c29.18-1.56,61.54-15.42,66.99-38.2C332.07,148.32,314.15,136.44,314.15,136.44Z" fill="#0a0751"/>
            <path id="Path_27" data-name="Path 27" d="M278.12,172.94v-4.81a10.986,10.986,0,0,1-4.89-5.34c-3.8-8.67-2.55-21.58-2.55-21.58L240.05,128.7s2.8,19.68.4,28.65-8.34,12.21-8.34,12.21-3.91,44.09,30.73,45.35c29.97,1.1,22.18-34.46,24.42-41.97Z" fill="#f7a192"/>
            <path id="Path_28" data-name="Path 28" d="M270.85,153.16a63.453,63.453,0,0,1-.18-11.96l-30.63-12.51s2.8,19.68.4,28.65-8.34,12.21-8.34,12.21a48.116,48.116,0,0,0,6.92,13.7,75.305,75.305,0,0,1,6.77-22.38C249.89,152.16,261.49,148.94,270.85,153.16Z" fill="#f4988c"/>
            <path id="Path_29" data-name="Path 29" d="M290.98,108s3.63-5.06,7.26,0-1.48,13.26-6.01,14.01-4.33-1.07-4.04-2.82S290.98,108,290.98,108Z" fill="#ea8a7d"/>
            <g id="Group_57" data-name="Group 57">
              <path id="Path_30" data-name="Path 30" d="M230.97,110.69s-4.07-5.06-8.14,0,1.66,13.26,6.73,14.01,4.85-1.07,4.53-2.82S230.97,110.69,230.97,110.69Z" fill="#ffb0a0"/>
              <path id="Path_31" data-name="Path 31" d="M227.44,121.84a5.888,5.888,0,0,0-1.63-1.79c-1.3-1.07-1.72-4.44-1.77-6.36a5.924,5.924,0,0,1,1.96-4.35c.75-.51,3.82,2.69,4.05,3.67s1.12,2.6,0,4.1-.65,2.01.23,2.56.23,1.49-.23,1.96-1.13-.38-1.92-1.37.63-3.38.97-3.76-2.32-1.28-3.25,1.88c-.09-1.66,1.63-4.52,3.82-2.77-.7-3.03-1.93-4.38-2.83-5.01s-1.52,1.39-1.86,3.39-.12,4.55.75,5.21A5.579,5.579,0,0,1,227.44,121.84Z" fill="#e8867c"/>
              <path id="Path_32" data-name="Path 32" d="M280.96,76.71s10.64,9.08,11.8,26.78-1.43,33.07-11.8,41.05-20.37,7.23-33.14.19c-9.53-5.25-16.34-20.29-16.73-31.25s-.78-26.79,9.14-36.78S272.66,70.55,280.96,76.71Z" fill="#ffb0a0"/>
              <path id="Path_33" data-name="Path 33" d="M259.01,110.32s4.28-5.95-1.17-12.66c-5.84-.88-9.76-1.78-12.16,0s-2.73,7.01-1.37,9.99c2.48-2.35,4.09-4.02,9.67-2.47C255.87,105.96,258.65,107.94,259.01,110.32Z" fill="#f7a192"/>
              <path id="Path_34" data-name="Path 34" d="M275.07,110.47a16.39,16.39,0,0,1,1.87-12.08,21,21,0,0,1,7.33-1.54l5.49,10.95Z" fill="#f7a192"/>
              <path id="Path_35" data-name="Path 35" d="M280.96,76.71c-8.3-6.16-30.8-9.99-40.73,0s-9.53,25.81-9.14,36.78,7.2,26,16.73,31.25c8.95,4.93,16.53,6.77,23.84,4.68h0c-5.15.73-10.55,1.22-21.05-6.05s-13.49-25.16-9.47-34.46,8.3-12.23,8.75-25.46c0,0,2.92,4.15,13.69,7.26s19.46,6.61,24.47,15.7a41.131,41.131,0,0,1,4.56,12.98,96.31,96.31,0,0,0,.15-15.9C291.6,85.79,280.96,76.71,280.96,76.71Z" fill="#f7a192"/>
              <path id="Path_36" data-name="Path 36" d="M276.39,122.5s.44,1.97-3.57,3.56-9.1-.86-8.57-3.82C265.78,123.82,272.11,125.51,276.39,122.5Z" fill="#f7a192"/>
              <path id="Path_37" data-name="Path 37" d="M264.23,141.38c-.17-.2,4.86,1.95,8.37,0C271.3,143.46,267.41,145.21,264.23,141.38Z" fill="#f7a192"/>
            </g>
            <path id="Path_38" data-name="Path 38" d="M234.69,105.84s-3.31,5.31-1.85,17.49c-1.07-1.45-2.2-12.39-1.88-14.41S234.69,105.84,234.69,105.84Z" fill="#040328"/>
            <path id="Path_39" data-name="Path 39" d="M245.64,73.34s5.56,19.86-9.68,35.43c-11,11.23-29.86,20.15-35.57,35.19,3.37-14.79,16.97-31.45,18.79-43.52S221,61.4,241.23,65.29c5.71-10.64,6.49-19.04,26.73-14.11s28.74,29.24,32.98,50.17c3.82,18.81,3.07,29.05,13.19,35.54-17.64-6.23-21.01-24.38-27.5-37.87S251.61,87.6,245.64,73.34Z" fill="#13136b"/>
            <path id="Path_40" data-name="Path 40" d="M242.51,68.67s5.97,22.18-9.27,37.74c-11,11.23-27.14,22.5-32.84,37.55,3.37-14.79,16.97-31.45,18.79-43.52S221,61.4,241.23,65.29c5.71-10.64,6.49-13.12,26.73-8.19s25.05,25.25,29.3,46.18c3.82,18.81,6.75,27.12,16.87,33.61-17.64-6.23-21.01-24.38-27.5-37.87S252.06,90.39,242.51,68.67Z" fill="#0a0751"/>
            <path id="Path_41" data-name="Path 41" d="M244.73,66.55a19.943,19.943,0,0,0,10.88,17.38c11.26,5.88,27.62,7,34.38,16.62-3.94-3.69-9.17-7.34-21.19-9.88S244.15,82.34,244.73,66.55Z" fill="#0a0751"/>
            <path id="Path_42" data-name="Path 42" d="M242.57,76.57s2.67,18.17-13.83,29.33-31.33,31.67-36.83,50-2.17,27.83,5,37.5c-2,1.17-12.17-7.5-13.17-20s3.83-33.33,19-49.33C222.6,103.11,242.07,101.23,242.57,76.57Z" fill="#13136b"/>
            <g id="Group_69" data-name="Group 69">
              <g id="Group_62" data-name="Group 62">
                <g id="Group_61" data-name="Group 61">
                  <path id="Path_43" data-name="Path 43" d="M275.07,110.47a7.69,7.69,0,0,1,5.66-5.28,9.423,9.423,0,0,1,8.34,1.97c-1.65.31-2.33,2.48-7,4.1S275.07,110.47,275.07,110.47Z" fill="#fff"/>
                  <g id="Group_60" data-name="Group 60">
                    <g id="Group_59" data-name="Group 59" clip-path="url(#clip-path)">
                      <path id="Path_44" data-name="Path 44" d="M283.25,106.49a2.989,2.989,0,1,1-4.09-1.07A2.982,2.982,0,0,1,283.25,106.49Z" fill="#0e004d"/>
                      <g id="Group_58" data-name="Group 58">
                        <path id="Path_45" data-name="Path 45" d="M281.91,107.28a1.432,1.432,0,1,1-1.96-.51A1.42,1.42,0,0,1,281.91,107.28Z" fill="#05002d"/>
                        <path id="Path_46" data-name="Path 46" d="M281.99,106.5a.628.628,0,1,1-.86-.22A.621.621,0,0,1,281.99,106.5Z" fill="#fff"/>
                      </g>
                    </g>
                  </g>
                </g>
                <path id="Path_48" data-name="Path 48" d="M275.07,110.47a7.492,7.492,0,0,1,2.32-3.91,8.452,8.452,0,0,1,4.2-2.01,8.8,8.8,0,0,1,4.63.39,7.148,7.148,0,0,1,3.54,2.85,9,9,0,0,0-3.77-2.18,9.533,9.533,0,0,0-4.25-.17,8.865,8.865,0,0,0-3.9,1.66A9.428,9.428,0,0,0,275.07,110.47Z" fill="#0a0751"/>
                <path id="Path_49" data-name="Path 49" d="M274.79,108.91a6.677,6.677,0,0,1,2.1-3.98,8.381,8.381,0,0,1,4.11-1.99,9.038,9.038,0,0,1,4.56.23,7.155,7.155,0,0,1,3.65,2.63,6.523,6.523,0,0,0-1.72-1.42,8.945,8.945,0,0,0-2.03-.89,10,10,0,0,0-2.18-.34,9.46,9.46,0,0,0-2.19.21,9.7,9.7,0,0,0-2.11.64,8.566,8.566,0,0,0-1.86,1.17A7.369,7.369,0,0,0,274.79,108.91Z" fill="#ad625a"/>
              </g>
              <g id="Group_67" data-name="Group 67">
                <g id="Group_66" data-name="Group 66">
                  <path id="Path_50" data-name="Path 50" d="M259.01,110.32a7.69,7.69,0,0,0-5.66-5.28,9.423,9.423,0,0,0-8.34,1.97c1.65.31,2.33,2.48,7,4.1S259.01,110.32,259.01,110.32Z" fill="#fff"/>
                  <g id="Group_65" data-name="Group 65">
                    <g id="Group_64" data-name="Group 64" clip-path="url(#clip-path-2)">
                      <path id="Path_51" data-name="Path 51" d="M249.09,106.21a2.989,2.989,0,1,0,4.09-1.07A2.982,2.982,0,0,0,249.09,106.21Z" fill="#0e004d"/>
                      <g id="Group_63" data-name="Group 63">
                        <path id="Path_52" data-name="Path 52" d="M250.43,107a1.432,1.432,0,1,0,1.96-.51A1.435,1.435,0,0,0,250.43,107Z" fill="#05002d"/>
                        <path id="Path_53" data-name="Path 53" d="M250.34,106.22a.628.628,0,1,0,.86-.22A.624.624,0,0,0,250.34,106.22Z" fill="#fff"/>
                      </g>
                    </g>
                  </g>
                </g>
                <path id="Path_55" data-name="Path 55" d="M259.01,110.32a7.492,7.492,0,0,0-2.32-3.91,8.452,8.452,0,0,0-4.2-2.01,8.8,8.8,0,0,0-4.63.39,7.147,7.147,0,0,0-3.54,2.85,9,9,0,0,1,3.77-2.18,9.533,9.533,0,0,1,4.25-.17,8.866,8.866,0,0,1,3.9,1.66A9.515,9.515,0,0,1,259.01,110.32Z" fill="#0a0751"/>
                <path id="Path_56" data-name="Path 56" d="M245.08,107.29a9.118,9.118,0,0,0,2.48,5.32c2.46,2.85,9.18,3.47,11.51-1.65-2.59,2.53-5.13,3.37-9.12,1.82A8.384,8.384,0,0,1,245.08,107.29Z" fill="#f7a192"/>
                <path id="Path_57" data-name="Path 57" d="M275.07,110.81s.88,4.61,6.93,4.26,7.51-7.32,7.51-7.32-2.28,5.57-7.51,5.96S275.07,110.81,275.07,110.81Z" fill="#f7a192"/>
                <path id="Path_58" data-name="Path 58" d="M259.29,108.76a6.677,6.677,0,0,0-2.1-3.98,8.381,8.381,0,0,0-4.11-1.99,9.038,9.038,0,0,0-4.56.23,7.155,7.155,0,0,0-3.65,2.63,6.523,6.523,0,0,1,1.72-1.42,8.945,8.945,0,0,1,2.03-.89,10,10,0,0,1,2.18-.34,9.513,9.513,0,0,1,2.19.21,9.7,9.7,0,0,1,2.11.64,8.566,8.566,0,0,1,1.86,1.17A7.369,7.369,0,0,1,259.29,108.76Z" fill="#ad625a"/>
              </g>
              <path id="Path_59" data-name="Path 59" d="M257.45,99.21a27.833,27.833,0,0,0-8.46-1.36c-4.67,0-8.5,3.5-8.5,3.5,4.28-5.19,7.2-5.71,10.77-5.9s6.55.58,7.46,1.23S259.63,99.08,257.45,99.21Z" fill="#0a0751"/>
              <path id="Path_60" data-name="Path 60" d="M275.6,99.21a27.833,27.833,0,0,1,8.46-1.36c4.67,0,8.5,3.5,8.5,3.5-4.28-5.19-7.2-5.71-10.77-5.9s-6.55.58-7.46,1.23S273.43,99.08,275.6,99.21Z" fill="#0a0751"/>
              <path id="Path_61" data-name="Path 61" d="M271.29,110.67a8.044,8.044,0,0,0,1.76,5.77s1.33,1.61,2.02,2.48c.93,1.16.22,2.56-1.09,1.97a5.95,5.95,0,0,1-2.02-2.59C271.35,116.92,270.24,113.16,271.29,110.67Z" fill="#ffc6bd"/>
              <path id="Path_62" data-name="Path 62" d="M273.68,102.13c-.27,1.38-.53,2.76-.69,4.15a30.633,30.633,0,0,0-.3,4.16,10.1,10.1,0,0,0,.66,3.98,7.812,7.812,0,0,0,2.59,3.02c.54.43,1.12.82,1.68,1.31a3.69,3.69,0,0,1,.77.88,1.853,1.853,0,0,1,.24.61,1.286,1.286,0,0,1-.09.71,4.16,4.16,0,0,1-1.58,1.66,9.217,9.217,0,0,1-1.94.96,12.616,12.616,0,0,1-4.2.8,9.92,9.92,0,0,1-4.14-.83,10.513,10.513,0,0,0,4.12.45,12.427,12.427,0,0,0,3.99-.98,10.646,10.646,0,0,0,1.79-.97,3.559,3.559,0,0,0,1.28-1.35c.2-.39-.25-.95-.74-1.36-.5-.43-1.09-.83-1.65-1.26a8.5,8.5,0,0,1-2.79-3.34,9.881,9.881,0,0,1-.58-4.28A31.906,31.906,0,0,1,273.68,102.13Z" fill="#ed857a"/>
              <g id="Group_68" data-name="Group 68">
                <path id="Path_63" data-name="Path 63" d="M279.87,128.87s-9.54,2.01-24.17,0c4.35,8.28,8.7,9.54,12.88,10.21S280.12,136.39,279.87,128.87Z" fill="#4b2e26"/>
                <path id="Path_64" data-name="Path 64" d="M279.14,129c-.4,1.32-1.89,3.83-7.49,4.08-7.38.32-12.57.68-14.87-4.07A80.718,80.718,0,0,0,279.14,129Z" fill="#fff"/>
                <path id="Path_65" data-name="Path 65" d="M278.72,129.94a4.4,4.4,0,0,0,.42-.95,80.779,80.779,0,0,1-22.37.01,7.742,7.742,0,0,0,.55.94A81.183,81.183,0,0,0,278.72,129.94Z" fill="#f2f2f2"/>
                <path id="Path_66" data-name="Path 66" d="M255.7,128.87s9.52-.63,11-.7,3.59.39,4.05,1.02c1.55-1.37,6.54-1.53,9.13-.32C276.02,130.07,263.78,130.87,255.7,128.87Z" fill="#ef4d8f"/>
                <path id="Path_67" data-name="Path 67" d="M255.7,128.87a14.492,14.492,0,0,0,5.8,9.27,12.17,12.17,0,0,0,15.65-.7c3.41-3.41,2.72-8.56,2.72-8.56s-2.78,9.71-10.98,9.57C260.68,138.29,255.7,128.87,255.7,128.87Z" fill="#ef4d8f"/>
              </g>
            </g>
            <g id="Group_73" data-name="Group 73">
              <g id="Group_70" data-name="Group 70">
                <path id="Path_68" data-name="Path 68" d="M239.73,102.9s13.14-.57,23.62,1.34c1.3,1.05.4,11.25-5.5,13.25s-12.84.85-15.89-1.1S239.73,102.9,239.73,102.9Z" fill="#fff" opacity="0.29"/>
                <path id="Path_69" data-name="Path 69" d="M263.4,110.09c.68-2.77.56-5.35-.06-5.85a109.328,109.328,0,0,0-17.6-1.42c.26,2.67.86,5.23,2.15,6.05C250.87,110.78,257.59,111.91,263.4,110.09Z" fill="#fff" opacity="0.29"/>
                <path id="Path_70" data-name="Path 70" d="M251.16,118.92c-3.81,0-7.37-.89-9.41-2.2-3.16-2.02-2.5-12.65-2.42-13.86l.03-.36.36-.02c.13-.01,13.3-.55,23.71,1.35l.1.02.08.06c.81.66.79,3.15.42,5.2-.3,1.67-1.62,7.24-6.04,8.74A21.288,21.288,0,0,1,251.16,118.92ZM240.1,103.28c-.2,3.39-.18,11.33,2.07,12.77,3.11,1.99,9.94,2.96,15.55,1.06,4-1.36,5.23-6.56,5.51-8.12.44-2.46.18-4-.08-4.37C253.81,102.92,242.27,103.21,240.1,103.28Z" fill="#040328"/>
              </g>
              <g id="Group_71" data-name="Group 71">
                <path id="Path_71" data-name="Path 71" d="M297.63,102.9s-13.13-.57-23.62,1.34c-1.3,1.05-.4,11.25,5.5,13.25s12.84.85,15.89-1.1S297.63,102.9,297.63,102.9Z" fill="#fff" opacity="0.29"/>
                <path id="Path_72" data-name="Path 72" d="M297.6,109.65a52.329,52.329,0,0,0,.02-6.76,139.229,139.229,0,0,0-18.43.6c.89,2.63,2.52,5.18,5.17,6.07A22.288,22.288,0,0,0,297.6,109.65Z" fill="#fff" opacity="0.29"/>
                <path id="Path_73" data-name="Path 73" d="M286.2,118.92a21.409,21.409,0,0,1-6.82-1.06c-4.42-1.5-5.74-7.07-6.04-8.74-.37-2.04-.39-4.54.42-5.2l.08-.06.1-.02c10.41-1.9,23.58-1.36,23.71-1.35l.36.02.03.36c.09,1.21.74,11.84-2.42,13.86C293.56,118.03,290,118.92,286.2,118.92Zm-11.99-14.31c-.26.37-.53,1.91-.08,4.37.28,1.56,1.51,6.77,5.51,8.12,5.6,1.9,12.43.93,15.55-1.06,2.25-1.44,2.27-9.38,2.07-12.77C295.09,103.21,283.55,102.92,274.21,104.61Z" fill="#040328"/>
              </g>
              <g id="Group_72" data-name="Group 72">
                <path id="Path_74" data-name="Path 74" d="M263.35,104.64a.4.4,0,0,1-.15-.03l.29-.75-.14.37-.03-.39c.04-.01.1-.03.18-.05a21.531,21.531,0,0,1,10.6.06l-.17.78a20.81,20.81,0,0,0-10.21-.07A1.455,1.455,0,0,1,263.35,104.64Z" fill="#040328"/>
              </g>
            </g>
          </g>
          <g id="Group_77" data-name="Group 77">
            <path id="Path_75" data-name="Path 75" d="M272.69,161.43s28.03,34.87-6.91,47.76c-40.55,2.34-28.54-34.86-27.52-46.41-4.77,3.73-6.88,7.94-9.86,14.62s2.37,31.7,9.48,48.56,21.47,57.36,31.28,60.69,12.7-27.5,18.9-47.25,1-68.77,1-68.77S277.59,168.85,272.69,161.43Z" fill="#ef4d8f"/>
            <g id="Group_76" data-name="Group 76">
              <path id="Path_76" data-name="Path 76" d="M234.55,167.07s-17.21,12.61-37.23,17.88-22.83,8.78-22.83,8.78,13.7,42.85,17.21,69.9,16.16,46.36,8.78,79.03-16.33,76.92-17.39,93.78,32.14,15.81,57.96,16.33,35.83-12.12,41.62-25.29-6.32-103.27-5.8-114.86-6.93-49-22.17-73.76S232.8,180.1,234.55,167.07Z" fill="#fff"/>
              <path id="Path_77" data-name="Path 77" d="M224.18,347.4c7.38-32.67-25.63-73.51-28.11-100.67-4.08-44.78-21.58-53.01-21.58-53.01s13.7,42.85,17.21,69.9,16.16,46.36,8.78,79.03-16.33,76.92-17.39,93.78c-.65,10.39,11.71,13.98,27.34,15.32C211.49,434.9,216.8,380.06,224.18,347.4Z" fill="#f0f6f7"/>
              <path id="Path_78" data-name="Path 78" d="M192.3,380.15l-1.91,10.28a9.222,9.222,0,0,1,9.55,1.49c4.39,3.86,16.86,3.69,22.26,1.98s25.95-18.7,25.95-18.7a23.011,23.011,0,0,1-15.41,3.16c-9.35-1.19-28.19-13.3-28.19-13.3Z" fill="#f0f6f7"/>
              <path id="Path_79" data-name="Path 79" d="M199.94,391.92s46.23-15.54,48.21-16.73C242.62,384.54,206.66,396.79,199.94,391.92Z" fill="#dfeeef"/>
              <path id="Path_80" data-name="Path 80" d="M278.99,167.07s7.38,34.62,0,65.59-14.75,79.97-13.7,110,2.11,82.72,3.69,90.1,24.76,20.55,48.47,15.81,24.24-14.75,24.24-14.75-11.59-57.43-25.82-100.11,1.05-57.96,6.32-89.57a200.524,200.524,0,0,0,.53-59.54S287.24,169.21,278.99,167.07Z" fill="#f0f6f7"/>
              <path id="Path_81" data-name="Path 81" d="M278.99,167.07s7.38,34.62,0,65.59-12.61,78.56-11.55,108.6,5.39,81.84,6.97,89.22,19.33,22.83,43.04,18.09,24.24-14.75,24.24-14.75-11.59-57.43-25.82-100.11,1.05-57.96,6.32-89.57a200.524,200.524,0,0,0,.53-59.54S287.24,169.21,278.99,167.07Z" fill="#fff"/>
              <path id="Path_82" data-name="Path 82" d="M278.98,292.15a3.75,3.75,0,1,1-3.75-3.75A3.751,3.751,0,0,1,278.98,292.15Z" fill="#dfeeef"/>
              <path id="Path_83" data-name="Path 83" d="M276.73,354.58a3.75,3.75,0,1,1-3.75-3.75A3.751,3.751,0,0,1,276.73,354.58Z" fill="#dfeeef"/>
              <path id="Path_84" data-name="Path 84" d="M280.48,416.48a3.75,3.75,0,1,1-3.75-3.75A3.751,3.751,0,0,1,280.48,416.48Z" fill="#dfeeef"/>
              <path id="Path_85" data-name="Path 85" d="M315.87,333.7c-14.23-42.68,1.05-57.96,6.32-89.57-5.27,31.61-39.15,53.51-18.75,93.61,20.6,40.5,27.58,92.96,29.04,105.9,8.94-4.67,9.21-9.83,9.21-9.83S330.09,376.38,315.87,333.7Z" fill="#f0f6f7"/>
              <path id="Path_86" data-name="Path 86" d="M288.04,372.95s10.97,12.93,43.89,17.79C306.64,381.38,288.04,372.95,288.04,372.95Z" fill="#dfeeef"/>
              <g id="Group_75" data-name="Group 75">
                <path id="Path_87" data-name="Path 87" d="M239.23,160.82s-6.36,20.09,4.71,51.44,30.57,57.79,25.01,80.93c-2.52-15.27-13.71-32.09-30.57-44.21s-23.91-31.11-23.91-31.11l19.99-13.25-21.78-3.07s10.59-23.49,13.08-28.28C230.25,164.66,239.23,160.82,239.23,160.82Z" fill="#dfeeef"/>
                <path id="Path_88" data-name="Path 88" d="M239.23,160.82s-6.36,20.09,4.71,51.44,29.96,48.55,25.99,73.83c-4.74-13.47-14.92-27.99-31.78-40.11s-22.57-37.32-22.57-37.32l18.88-4.04-21.16-7.75s9.97-18.81,12.47-23.6C230.25,164.66,239.23,160.82,239.23,160.82Z" fill="#f0f6f7"/>
                <path id="Path_89" data-name="Path 89" d="M272.69,161.43s9.51,19.27,8.53,42.26-3.29,31.61-6.32,42.41-5.33,25.97-7.46,54.67c5.48-33.99,25.74-46.15,33.46-66.66,6.59-17.5,7.76-23.8,7.76-23.8l-15.63-8.16,11.59-3.86-12.47-24.76S281.08,162.78,272.69,161.43Z" fill="#dfeeef"/>
                <path id="Path_90" data-name="Path 90" d="M272.69,161.43s9.51,19.27,8.53,42.26-3.29,31.61-6.32,42.41-5.33,25.97-7.46,54.67c5.48-33.99,24.37-47.61,32.09-68.12a134.619,134.619,0,0,0,7.9-31.2l-14.4.7,11.77-8.96-12.64-19.67C292.15,173.53,281.08,162.78,272.69,161.43Z" fill="#f0f6f7"/>
              </g>
            </g>
          </g>
          <path id="Path_91" data-name="Path 91" d="M324.55,192.5a60.976,60.976,0,0,0-7.29,32.94c1.3,18.82.44,49.52-6.67,68.75,13.44-27.13,13.7-41.36,11.85-53.74S317.17,210.15,324.55,192.5Z" fill="#f0f6f7"/>
          <g id="Group_82" data-name="Group 82">
            <path id="Path_92" data-name="Path 92" d="M322.82,184.6s8.96,4.22,11.06,17.91,3.72,18.7,9.9,29.77,7.55,22.57,12.65,47.5c-12.82,16.51-33.61,8.61-33.61,8.61s-.18-25.82-3.78-41.62S317.55,189.34,322.82,184.6Z" fill="#fff"/>
            <path id="Path_93" data-name="Path 93" d="M320.47,189.72s-4.73,36.91,0,62.95c-.06,13.36-2.1,19.31-2.1,19.31S308.98,218.46,320.47,189.72Z" fill="#f0f6f7"/>
            <g id="Group_81" data-name="Group 81">
              <path id="Path_94" data-name="Path 94" d="M325.02,309.98s-3.43,16.46-3.54,21.6,5.93,8.19,11.7,7.57,9.4-7.53,10.58-14.73-.64-26.43-6.38-28.41-8.12,6.86-8.31,8.1C328.88,305.37,325.02,309.98,325.02,309.98Z" fill="#c6e2e5"/>
              <path id="Path_95" data-name="Path 95" d="M321.12,328.43s8.44,5,20.56-10.28-8-20.46-8-20.46l-8.49,9.77Z" fill="#ef9384"/>
              <path id="Path_96" data-name="Path 96" d="M331.4,306.21s4.97,16.11-3.88,22.62c-1.05.22-2.79.36-2.79.36s2.35,1.26,7.19.82,6.59-5.36,7.73-9.31S338.34,305.78,331.4,306.21Z" fill="#ef4d8f"/>
              <path id="Path_97" data-name="Path 97" d="M330.28,305.37s6.72,6.93,6.1,21.85c-.1,2.45-4.2,12.75-6.83,11.87,6.65,2.11,11.97-1.41,15.83-7.55s5.66-9.48,10.36-15.63,4.7-9.48,4.7-18.26-3.67-12.6-4.02-17.87-27.31,1.68-27.9,7.99S324.84,301.51,330.28,305.37Z" fill="#fff"/>
              <path id="Path_98" data-name="Path 98" d="M327.11,295.74c1.39.73,17.45-1.88,20.28,13.08,3.23,1.7,4.11-4.62,1.83-9.54s-13.73-6.85-13.73-6.85c12.68-1.76,17.77-1.05,20.93,4.04-3.51-10.36-17.24-11.24-22.48-8.08,6.5-12.82,17.04-11.77,17.04-11.77-4.39-3.51-18.12,1.17-22.84,8.14S327.11,295.74,327.11,295.74Z" fill="#f0f6f7"/>
              <g id="Group_80" data-name="Group 80">
                <g id="Group_79" data-name="Group 79">
                  <g id="Group_78" data-name="Group 78">
                    <path id="Path_99" data-name="Path 99" d="M316.89,345.82l-18.87,34.77,26.91-131.72,17.91-25.81Z" fill="#e59e00"/>
                    <path id="Path_100" data-name="Path 100" d="M290.94,378.48l28.1-131.71,18.97-25.29,4.83,1.58-17.91,25.81L298.02,380.59Z" fill="#ffc112"/>
                  </g>
                </g>
                <path id="Path_101" data-name="Path 101" d="M331.16,318.77a30.514,30.514,0,0,0-.22-14.71c-2.11-8.25-.04-7.77-2.24-12.51s.79-9.4-.44-11.15-6.15.26-6.94,5.71,1.58,5.27.88,9.31-1.4,6.41-2.63,7.46-12.09-1.24-12.09-1.24l.64-3.68a5.258,5.258,0,0,0-5.5,2.37c-2.28,3.25-1.14,7.64-1.14,7.64-3.42,1.14-3.25,6.32-1.84,7.82a8.653,8.653,0,0,0-.94,8.25c-1.43,2.46-.37,6.5,1.21,7.99s12.47,3.69,15.98,2.99,3.95-2.99,5.44-5.71,2.9-2.9,5.18-5.62S330.11,322.54,331.16,318.77Z" fill="#f7a192"/>
                <path id="Path_102" data-name="Path 102" d="M331.16,318.77a30.514,30.514,0,0,0-.22-14.71c-2.11-8.25-.04-7.77-2.24-12.51s.79-9.4-.44-11.15-6.15.26-6.94,5.71,3.93,5.95,3.22,9.99-1.21,6.06-2.44,7.11-14.63-1.57-14.63-1.57l.64-3.68a5.258,5.258,0,0,0-5.5,2.37c-2.28,3.25-1.14,7.64-1.14,7.64-3.42,1.14-3.25,6.32-1.84,7.82a8.653,8.653,0,0,0-.94,8.25c-1.43,2.46-.37,6.5,1.21,7.99s12.47,3.69,15.98,2.99,3.95-2.99,5.44-5.71,2.9-2.9,5.18-5.62S330.11,322.54,331.16,318.77Z" fill="#ffb0a0"/>
                <path id="Path_103" data-name="Path 103" d="M301.48,307.97a11.627,11.627,0,0,0,6.93,4.85c5.01,1.38,7.8.59,8.48,1.65s-.31.72-3.67.46S302.65,313.13,301.48,307.97Z" fill="#f7a192"/>
                <path id="Path_104" data-name="Path 104" d="M299.64,315.79a15.231,15.231,0,0,0,6.8,4.15c4.74,1.58,8.03.26,8.56,1.58s-4.21.92-8.1-.33S299.42,316.84,299.64,315.79Z" fill="#f7a192"/>
                <path id="Path_105" data-name="Path 105" d="M298.69,324.04a14.086,14.086,0,0,0,6.23,2.94c4.21.99,6.92-.26,7.51.59s-.72,1.65-5.01,1.05C303.14,328.04,299.25,326.19,298.69,324.04Z" fill="#f7a192"/>
              </g>
            </g>
          </g>
          <path id="Path_106" data-name="Path 106" d="M209.69,353.19s4.74,9.48,13.96,13.44,15.02,11.06,19.76,19.23-32.14,11.33-32.14,11.33l-15.81-23.18Z" fill="#ffb0a0"/>
          <g id="Group_85" data-name="Group 85">
            <g id="Group_84" data-name="Group 84">
              <g id="Group_83" data-name="Group 83">
                <path id="Path_107" data-name="Path 107" d="M218.18,363.34a33.6,33.6,0,0,1-8.49-10.15L195.46,374l15.81,23.18a.617.617,0,0,0,.09-.01c-.69-1.28-1.33-2.6-1.93-3.94C204.36,383.11,208.06,369.1,218.18,363.34Z" fill="#f7a192"/>
                <path id="Path_108" data-name="Path 108" d="M213.29,355.21l5.09,6.32s-7.03,1.79-12.47,10.8-3.89,11.29-3.89,11.29l-7.26-6.02C194.76,377.61,192.7,360.7,213.29,355.21Z" fill="#ef4d8f"/>
              </g>
              <path id="Path_109" data-name="Path 109" d="M174.49,193.73s-33.03,80.13-34.61,113.74,17.39,47.31,24.24,55.21,29.5,21.6,29.5,21.6c4.57-22.83,22.66-28.45,22.66-28.45s-22.66-27.16-31.61-38.34,2.96-27.71,8.07-47.37S184.87,192.85,174.49,193.73Z" fill="#fff"/>
              <path id="Path_110" data-name="Path 110" d="M158.5,310.87c-.46.26,15.81-3.45,26.17,6.62C181.44,308.59,170.61,303.84,158.5,310.87Z" fill="#f0f6f7"/>
              <path id="Path_111" data-name="Path 111" d="M176.48,354.84c-6.85-7.9-25.82-21.6-24.24-55.21,1.17-24.81,19.47-74.97,28.97-99.53-2.23-4.12-4.53-6.55-6.73-6.37,0,0-33.03,80.13-34.61,113.74s17.39,47.31,24.24,55.21,29.5,21.6,29.5,21.6a42.406,42.406,0,0,1,4.65-12.71C191.04,366.86,180.72,359.74,176.48,354.84Z" fill="#f0f6f7"/>
            </g>
            <path id="Path_112" data-name="Path 112" d="M199.94,391.92s30.54-1.04,48.21-16.73c4.74,10.67,5.01,13.57,5.01,13.57s-28.19,17.39-50.05,15.81C201.79,399.56,199.94,391.92,199.94,391.92Z" fill="#fff"/>
          </g>
        </g>
        <g id="Group_93" data-name="Group 93">
          <g id="Group_90" data-name="Group 90">
            <g id="Group_87" data-name="Group 87">
              <path id="Path_113" data-name="Path 113" d="M221.66,183.44c-3.78,14.53,1,27.82,6.18,38.91,11.55,24.74,9.54,34.64,8.22,41.19-.09.44-.18.87-.25,1.28a.843.843,0,0,0,.67.99.859.859,0,0,0,.16.01.844.844,0,0,0,.83-.69c.08-.41.16-.82.25-1.26,1.37-6.77,3.45-17-8.34-42.24-5.05-10.81-9.72-23.76-6.07-37.77,3.71-14.24,12.06-21.39,16.41-24.26l.76-2.47C236.73,159.19,226.1,166.37,221.66,183.44Z" fill="#07003d"/>
            </g>
            <g id="Group_88" data-name="Group 88">
              <path id="Path_114" data-name="Path 114" d="M238.98,328.08a.834.834,0,0,1-.84-.82.854.854,0,0,1,.82-.87c2.82-.07,5.23-.69,5.42-1.18.26-1.59,1.68-36.21,1.4-43.99-.22-6.03-1.79-13.55-8.01-15.14a8.078,8.078,0,0,0-6.46,1.01c-2.89,1.82-4.99,5.33-5.91,9.9-1.87,9.3-4.08,44.71-3.24,46.97.6.94,3.67,1.67,5.66,1.87a.844.844,0,0,1-.16,1.68c-.93-.09-5.66-.66-6.95-2.71-1.46-2.33,1.52-40.53,3.05-48.14,1.01-5.02,3.38-8.93,6.66-10.99a9.777,9.777,0,0,1,7.78-1.22c5.72,1.46,8.93,7.24,9.28,16.71.29,7.83-1.16,42.71-1.42,44.33-.36,2.2-5.05,2.55-7.05,2.6A.037.037,0,0,0,238.98,328.08Z" fill="#07003d"/>
            </g>
            <path id="Path_115" data-name="Path 115" d="M225.33,325.86s.16-.77.79-.69,2.43.24,2.82.69,0,2.08-.32,2.31-2.35-.3-2.96-.38S225.14,326.52,225.33,325.86Z" fill="#66657a"/>
            <path id="Path_116" data-name="Path 116" d="M241.56,326.39a.647.647,0,0,0-.73-.55c-.63.08-2.49.1-2.89.55s.01,1.99.32,2.22,2.34-.21,2.95-.29S241.74,327.05,241.56,326.39Z" fill="#66657a"/>
            <g id="Group_89" data-name="Group 89">
              <path id="Path_117" data-name="Path 117" d="M238.3,264.04a10.21,10.21,0,0,0-8.11,1.27c-3.39,2.13-5.82,6.13-6.85,11.27-.11.53-.23,1.28-.35,2.19l2.52.16c.11-.7.21-1.33.32-1.85.89-4.45,2.92-7.87,5.72-9.62a7.657,7.657,0,0,1,6.13-.96c5.62,1.44,7.28,8.04,7.64,13.73l2.54.17C247.35,271.16,244.06,265.51,238.3,264.04Z" fill="#66657a"/>
            </g>
          </g>
          <g id="Group_92" data-name="Group 92">
            <g id="Group_91" data-name="Group 91">
              <path id="Path_118" data-name="Path 118" d="M299.74,201.66c-9.46-37.36-23.55-42.26-27.88-42.86l.57,1.85c4.55,1.1,17.01,7.25,25.67,41.43,10.79,42.63.15,68.22.04,68.47l1.55.67C299.81,270.96,310.68,244.9,299.74,201.66Z" fill="#07003d"/>
            </g>
            <circle id="Ellipse_4" data-name="Ellipse 4" cx="6.13" cy="6.13" r="6.13" transform="translate(292.77 265.84)" fill="#66657a"/>
            <path id="Path_119" data-name="Path 119" d="M302.49,271.97a3.59,3.59,0,1,1-3.59-3.59A3.593,3.593,0,0,1,302.49,271.97Z" fill="#8c8c9b"/>
          </g>
        </g>
      </g>
    </g>
  </g>
</svg>
