<svg xmlns="http://www.w3.org/2000/svg" width="32" height="32" viewBox="0 0 32 32">
  <g id="Group_234" data-name="Group 234" transform="translate(-5033 -1007)">
    <g id="Group_232" data-name="Group 232" transform="translate(949 252.244)">
      <circle id="Ellipse_15" data-name="Ellipse 15" cx="16" cy="16" r="16" transform="translate(4084 754.756)"/>
    </g>
    <path id="Path_229" data-name="Path 229" d="M-5.742-14.058a4.652,4.652,0,0,1,2.142.477,3.624,3.624,0,0,1,1.467,1.332A3.592,3.592,0,0,1-1.6-10.314,2.753,2.753,0,0,1-2.079-8.73,3.5,3.5,0,0,1-3.384-7.6,3.4,3.4,0,0,1-1.458-6.444a3.37,3.37,0,0,1,.7,2.2,4.175,4.175,0,0,1-.585,2.2A3.992,3.992,0,0,1-2.979-.54,5.151,5.151,0,0,1-5.364,0h-4.68a.9.9,0,0,1-.666-.27.9.9,0,0,1-.27-.666V-13.122a.9.9,0,0,1,.27-.675.921.921,0,0,1,.666-.261Zm0,5.778a2.606,2.606,0,0,0,1.7-.522A1.839,1.839,0,0,0-3.4-10.314a1.813,1.813,0,0,0-.639-1.5,2.637,2.637,0,0,0-1.7-.513H-9.108v4.05Zm.378,6.552A3.036,3.036,0,0,0-3.33-2.385a2.309,2.309,0,0,0,.774-1.863,2.036,2.036,0,0,0-.765-1.71,3.243,3.243,0,0,0-2.043-.594H-9.108v4.824ZM10.674-7.29a.891.891,0,0,1,.657.261.913.913,0,0,1,.261.675v4.3a.809.809,0,0,1-.288.666A6.7,6.7,0,0,1,6.894.18,6.72,6.72,0,0,1,3.375-.774,6.861,6.861,0,0,1,.864-3.384,7.409,7.409,0,0,1-.054-7.038a7.323,7.323,0,0,1,.918-3.627,6.947,6.947,0,0,1,2.511-2.61,6.672,6.672,0,0,1,3.519-.963,6.989,6.989,0,0,1,2.367.36,7.094,7.094,0,0,1,2.025,1.188.851.851,0,0,1,.288.333,1.039,1.039,0,0,1,.072.405.763.763,0,0,1-.261.594.9.9,0,0,1-.621.234.955.955,0,0,1-.612-.234,5.237,5.237,0,0,0-1.44-.909,4.989,4.989,0,0,0-1.818-.279,4.774,4.774,0,0,0-2.583.738A5.338,5.338,0,0,0,2.439-9.8a5.672,5.672,0,0,0-.693,2.763,5.657,5.657,0,0,0,.693,2.772,5.356,5.356,0,0,0,1.872,2,4.774,4.774,0,0,0,2.583.738,5.243,5.243,0,0,0,2.9-.9v-3.2H7.308a.973.973,0,0,1-.675-.234.763.763,0,0,1-.261-.594.763.763,0,0,1,.261-.594.973.973,0,0,1,.675-.234Z" transform="translate(5049 1030)" fill="#fff" stroke="#fff" stroke-width="1"/>
  </g>
</svg>
