<svg xmlns="http://www.w3.org/2000/svg" xmlns:xlink="http://www.w3.org/1999/xlink" width="661.32" height="191.221" viewBox="0 0 661.32 191.221">
  <defs>
    <filter id="Path_16" x="36.5" y="27.779" width="115.65" height="163.443" filterUnits="userSpaceOnUse">
      <feOffset dy="15" input="SourceAlpha"/>
      <feGaussianBlur stdDeviation="7.5" result="blur"/>
      <feFlood flood-opacity="0.259"/>
      <feComposite operator="in" in2="blur"/>
      <feComposite in="SourceGraphic"/>
    </filter>
  </defs>
  <g id="Group_8" data-name="Group 8" transform="translate(-485 -657)">
    <circle id="Ellipse_1" data-name="Ellipse 1" cx="94.5" cy="94.5" r="94.5" transform="translate(485 657)" fill="#fff"/>
    <g transform="matrix(1, 0, 0, 1, 485, 657)" filter="url(#Path_16)">
      <path id="Path_16-2" data-name="Path 16" d="M550.995,800.546V720.718l70.65-38.615v77.4l-20.433,11.948V711.887l-6.234,3.463v59.914l-17.836,10.39V725.047l-6.407,3.81v59.568Z" transform="translate(-491.99 -646.82)" fill="#116aef"/>
    </g>
    <path id="Path_18" data-name="Path 18" d="M81.84-84.12a7.348,7.348,0,0,1,5.22,2.1,6.893,6.893,0,0,1,2.22,5.22V-7.32A7.2,7.2,0,0,1,87.24-2.1,7.186,7.186,0,0,1,81.84,0a7.506,7.506,0,0,1-5.46-2.04,7.035,7.035,0,0,1-2.1-5.28V-55.68L54.48-25.44a10.234,10.234,0,0,1-2.76,2.34,5.571,5.571,0,0,1-3.24.78,5.342,5.342,0,0,1-3.12-.78,10.234,10.234,0,0,1-2.76-2.34L22.8-56.76V-7.32a7.392,7.392,0,0,1-1.92,5.28A6.6,6.6,0,0,1,15.84,0a6.368,6.368,0,0,1-4.92-2.1A7.445,7.445,0,0,1,9-7.32V-76.8a6.949,6.949,0,0,1,2.22-5.16,7.383,7.383,0,0,1,5.34-2.16,7.988,7.988,0,0,1,3.6.9,6.963,6.963,0,0,1,2.76,2.34l26.16,40.2,26.88-40.2a7.3,7.3,0,0,1,2.58-2.34A6.723,6.723,0,0,1,81.84-84.12ZM163.68-33.6a6.162,6.162,0,0,1-2.28,4.68,7.634,7.634,0,0,1-5.04,1.8h-39.6a18.1,18.1,0,0,0,6.6,11.1A18.451,18.451,0,0,0,135-12a25.8,25.8,0,0,0,7.68-.9,20,20,0,0,0,4.38-1.92q1.62-1.02,2.22-1.38a9.155,9.155,0,0,1,4.08-1.08,5.892,5.892,0,0,1,4.32,1.8,5.756,5.756,0,0,1,1.8,4.2q0,3.24-3.36,5.88a28.671,28.671,0,0,1-9,4.68,35.163,35.163,0,0,1-11.4,1.92A35.394,35.394,0,0,1,118.14-3a29.316,29.316,0,0,1-11.58-11.58,33.769,33.769,0,0,1-4.08-16.62,36.792,36.792,0,0,1,4.32-18.12,30.673,30.673,0,0,1,11.4-11.94,29.466,29.466,0,0,1,15.12-4.14,28.032,28.032,0,0,1,14.94,4.32,32.293,32.293,0,0,1,11.22,11.64A31.291,31.291,0,0,1,163.68-33.6ZM133.32-52.2q-13.92,0-16.44,13.08h31.44v-.84a12.405,12.405,0,0,0-4.92-8.64A15.573,15.573,0,0,0,133.32-52.2Zm94.32-36.6a6.993,6.993,0,0,1,5.16,2.04,7.144,7.144,0,0,1,2.04,5.28V-7.32A7.2,7.2,0,0,1,232.8-2.1,6.889,6.889,0,0,1,227.64,0a6.8,6.8,0,0,1-5.1-2.04,7.547,7.547,0,0,1-2.1-5.16,24.624,24.624,0,0,1-8.1,5.94A24.417,24.417,0,0,1,201.6,1.2a27.435,27.435,0,0,1-15-4.26,29.867,29.867,0,0,1-10.62-11.82,36.884,36.884,0,0,1-3.9-17.16,37.731,37.731,0,0,1,3.84-17.22,29.5,29.5,0,0,1,10.5-11.88,26.726,26.726,0,0,1,14.7-4.26,27.8,27.8,0,0,1,10.8,2.1,28.361,28.361,0,0,1,8.52,5.34V-81.48a7.2,7.2,0,0,1,2.04-5.22A6.889,6.889,0,0,1,227.64-88.8ZM203.4-12a16.024,16.024,0,0,0,12.72-5.7q4.92-5.7,4.92-14.34a21.4,21.4,0,0,0-4.92-14.4A15.953,15.953,0,0,0,203.4-52.2a15.826,15.826,0,0,0-12.6,5.76,21.4,21.4,0,0,0-4.92,14.4q0,8.64,4.86,14.34A15.848,15.848,0,0,0,203.4-12Zm77.88-64.08q-4.08,0-5.76,2.34a8.562,8.562,0,0,0-1.68,5.1V-63h10.92a6.624,6.624,0,0,1,4.8,1.86,6.315,6.315,0,0,1,1.92,4.74,6.315,6.315,0,0,1-1.92,4.74,6.624,6.624,0,0,1-4.8,1.86H273.84V-7.32A7.2,7.2,0,0,1,271.8-2.1,6.889,6.889,0,0,1,266.64,0a6.889,6.889,0,0,1-5.16-2.1,7.2,7.2,0,0,1-2.04-5.22V-49.8h-6.48a6.624,6.624,0,0,1-4.8-1.86,6.315,6.315,0,0,1-1.92-4.74,6.315,6.315,0,0,1,1.92-4.74,6.624,6.624,0,0,1,4.8-1.86h6.48v-5.52a18.9,18.9,0,0,1,6.18-14.64q6.18-5.64,17.82-5.64a15.919,15.919,0,0,1,7.74,1.8,5.894,5.894,0,0,1,3.3,5.52,6.584,6.584,0,0,1-1.68,4.68,5.374,5.374,0,0,1-4.08,1.8,7.049,7.049,0,0,1-1.26-.12q-.66-.12-1.38-.24A20.508,20.508,0,0,0,281.28-76.08Zm34.8,68.76a7.087,7.087,0,0,1-2.1,5.22A7.087,7.087,0,0,1,308.76,0a6.747,6.747,0,0,1-5.04-2.1,7.2,7.2,0,0,1-2.04-5.22V-81.48a7.087,7.087,0,0,1,2.1-5.22A7.087,7.087,0,0,1,309-88.8a6.747,6.747,0,0,1,5.04,2.1,7.2,7.2,0,0,1,2.04,5.22Zm74.4-26.28a6.162,6.162,0,0,1-2.28,4.68,7.634,7.634,0,0,1-5.04,1.8h-39.6a18.1,18.1,0,0,0,6.6,11.1A18.451,18.451,0,0,0,361.8-12a25.8,25.8,0,0,0,7.68-.9,20,20,0,0,0,4.38-1.92q1.62-1.02,2.22-1.38a9.155,9.155,0,0,1,4.08-1.08,5.892,5.892,0,0,1,4.32,1.8,5.756,5.756,0,0,1,1.8,4.2q0,3.24-3.36,5.88a28.671,28.671,0,0,1-9,4.68,35.163,35.163,0,0,1-11.4,1.92A35.394,35.394,0,0,1,344.94-3a29.316,29.316,0,0,1-11.58-11.58,33.769,33.769,0,0,1-4.08-16.62,36.792,36.792,0,0,1,4.32-18.12A30.673,30.673,0,0,1,345-61.26a29.466,29.466,0,0,1,15.12-4.14,28.032,28.032,0,0,1,14.94,4.32,32.293,32.293,0,0,1,11.22,11.64A31.291,31.291,0,0,1,390.48-33.6ZM360.12-52.2q-13.92,0-16.44,13.08h31.44v-.84a12.405,12.405,0,0,0-4.92-8.64A15.573,15.573,0,0,0,360.12-52.2Zm89.64,40.8a6.673,6.673,0,0,1,1.56,4.32,6.864,6.864,0,0,1-2.28,5.16A7.177,7.177,0,0,1,444,.24a7.19,7.19,0,0,1-5.88-3.12l-14.4-17.88L409.68-2.88A7.576,7.576,0,0,1,407.1-.66a6.8,6.8,0,0,1-3.18.78,7.358,7.358,0,0,1-4.8-1.92,5.685,5.685,0,0,1-2.28-4.44,7.026,7.026,0,0,1,1.8-4.56l16.68-20.4L398.04-52.68A6.673,6.673,0,0,1,396.48-57a6.759,6.759,0,0,1,2.22-5.1,7.208,7.208,0,0,1,5.1-2.1,7.278,7.278,0,0,1,5.88,3l14.76,18.36,13.68-18.12a6.817,6.817,0,0,1,5.76-3.24,6.608,6.608,0,0,1,4.86,1.98,6.2,6.2,0,0,1,1.98,4.5,7.153,7.153,0,0,1-1.68,4.68L432.48-32.88Z" transform="translate(695 795.8)" fill="#fff"/>
  </g>
</svg>
