<svg xmlns="http://www.w3.org/2000/svg" width="600" height="700" viewBox="0 0 600 700">
  <g id="Group_55" data-name="Group 55" transform="translate(-657 -2297)">
    <rect id="Rectangle_26" data-name="Rectangle 26" width="600" height="700" transform="translate(657 2297)" fill="#e8eaf0"/>
    <g id="file_pdf" data-name="file pdf" transform="translate(887.416 2569.819)">
      <path id="Path_22" data-name="Path 22" d="M131.578,39.455,96.819,4.484,93.11,3H11.3L6,8.3V66.584H16.6V13.6H80.181V50.688l5.3,5.3h37.091v10.6h10.6V43.27Zm-40.8,5.935V13.6l31.792,31.792ZM11.3,77.181,6,82.48v63.584l5.3,5.3H127.869l5.3-5.3V82.48l-5.3-5.3Zm111.272,52.987v10.6H16.6V87.779H122.571Zm-84.779-10.6H34.4v10.6H27.195V98.376H38.428c7.948,0,11.975,3.815,11.975,10.6a9.946,9.946,0,0,1-3.391,7.63A14.019,14.019,0,0,1,37.792,119.571ZM37.156,104.2H34.4v9.856h2.755c3.815,0,5.723-1.7,5.723-4.981S40.971,104.2,37.156,104.2Zm43.025,21.513a15.546,15.546,0,0,0,4.663-11.869c0-10.6-5.617-15.472-16.956-15.472H56.655v31.792H67.888A16.945,16.945,0,0,0,80.181,125.717ZM63.756,124.34V104.2h3.5a9.95,9.95,0,0,1,7.418,2.649,9.793,9.793,0,0,1,2.649,7.1,10.591,10.591,0,0,1-2.649,7.63,9.976,9.976,0,0,1-7.312,2.755Zm47.158-6.464H100.634v12.293H93.428V98.376h18.439V104.2H100.634v7.842h10.279Z" fill-rule="evenodd"/>
    </g>
  </g>
</svg>
